<svg xmlns="http://www.w3.org/2000/svg" viewBox="0 0 32 40" x="0px" y="0px"><g data-name="Layer 35" class="mathIcon"><path d="M24.0547,6.5479H7.9453a1.3119,1.3119,0,0,0-1.31,1.31V24.1416a1.3119,1.3119,0,0,0,1.31,1.3105H24.0547a1.3119,1.3119,0,0,0,1.3105-1.3105V7.8584A1.3119,1.3119,0,0,0,24.0547,6.5479Zm.4062,1.31V15.5H16.5V7.4521h7.5547A.4072.4072,0,0,1,24.4609,7.8584ZM7.9453,7.4521H15.5V15.5H7.5391V7.8584A.4072.4072,0,0,1,7.9453,7.4521Zm-.4062,16.69V16.5H15.5v8.0479H7.9453A.4072.4072,0,0,1,7.5391,24.1416Zm16.5156.4063H16.5V16.5h7.9609v7.6416A.4072.4072,0,0,1,24.0547,24.5479Z"/><path d="M9.1416,11.4072H11.01v1.8692a.5.5,0,0,0,1,0V11.4072h1.8681a.5.5,0,0,0,0-1H12.01V8.5391a.5.5,0,0,0-1,0v1.8681H9.1416a.5.5,0,0,0,0,1Z"/><path d="M11.6846,20.8164l1.3213-1.3213a.5.5,0,0,0-.7071-.707l-1.3213,1.3213L9.6563,18.7881a.5.5,0,0,0-.7071.707l1.3213,1.3213L8.9492,22.1377a.5.5,0,1,0,.7071.707l1.3212-1.3213,1.3213,1.3213a.5.5,0,0,0,.7071-.707Z"/><path d="M17.9844,11.4072h4.7363a.5.5,0,0,0,0-1H17.9844a.5.5,0,0,0,0,1Z"/><path d="M22.9307,19.0645H18.1943a.5.5,0,0,0,0,1h4.7364a.5.5,0,0,0,0-1Z"/><path d="M22.8887,21.4326H18.1514a.5.5,0,0,0,0,1h4.7373a.5.5,0,0,0,0-1Z"/></g></svg>