<svg class="scienceIcon" xmlns="http://www.w3.org/2000/svg" xmlns:xlink="http://www.w3.org/1999/xlink" version="1.1" x="0px" y="0px" viewBox="0 0 70 87.5" enable-background="new 0 0 70 70" xml:space="preserve"><path d="M7.21875,49.9038086c1.2607422,2.3417969,4.2617188,3.5380859,8.5185547,3.5380859  c2.5611572,0,5.5955811-0.4568481,8.9572144-1.3344116c2.1877441,9.0028076,5.9698486,14.352478,10.2156372,14.352478  c0.7646484,0,1.5341797-0.175293,2.296875-0.5258789c0.1386719-0.0654297,3.3896484-1.640625,5.1621094-5.8950195  c0.9781494-1.9299316,1.8214111-4.2836304,2.527771-6.9664307c3.5881348,1.1271973,6.7503052,1.694458,9.362854,1.694458  c3.5136719-0.0004883,6.0419922-1.0136719,7.3066406-3.0249023c1.0452271-1.6618652,1.0827637-3.883606,0.1396484-6.4525146  c1.0393066-0.8720093,1.7148438-2.1622925,1.7148438-3.6202393c0-2.625-2.1347656-4.7602539-4.7597656-4.7602539  c-0.7288818,0-1.4119263,0.178833-2.0297852,0.4741211c-0.4848633-0.5591431-1.0039673-1.1263428-1.5567627-1.7021484  c6.8143311-6.1893921,9.5697021-11.8464966,7.5465088-15.6040039c-0.5985718-1.1171875-1.607666-1.9638672-2.9592285-2.557373  c-0.0228271-2.5567627-2.1066284-4.6311035-4.6687012-4.6311035c-2.3272705,0-4.2461548,1.7155762-4.5983887,3.9454346  c-1.6343994,0.2137451-3.3895874,0.5647583-5.2419434,1.0493164C42.9639282,8.8859863,39.1723633,3.5400391,34.9101562,3.5400391  c-4.1256104,0-7.7310181,4.8690186-9.9735107,13.3869629C16.53302,14.2892456,10.491333,14.7492676,8.2929688,18.2495117  c-0.9130249,1.4597168-1.0665894,3.2846069-0.4769287,5.4234009c-0.7607422,0.831543-1.2369385,1.9282227-1.2369385,3.1415405  c0,2.5766602,2.0957031,4.6728516,4.671875,4.6728516c0.3180542,0,0.628418-0.0330811,0.928833-0.0939331  c0.7947388,0.9807129,1.6609497,1.9614868,2.5907593,2.930603C7.9556274,40.5235596,5.1986694,46.1727295,7.21875,49.9038086z   M26.3728027,19.5267944c2.1672363,0.7758789,4.4024658,1.7282104,6.6838989,2.8544922  c-1.2992554,0.6125488-2.5958252,1.2508545-3.8721313,1.9390259c-1.3303833,0.7195435-2.642334,1.491333-3.9384766,2.2827759  C25.5062256,24.1068115,25.8848267,21.7410889,26.3728027,19.5267944z M43.657959,20.3842163  c0.4202271,2.0596313,0.751709,4.2388306,0.9830933,6.5253906c-1.0444946-0.7231445-2.1212158-1.4470215-3.2572632-2.1659546  c-1.2477417-0.7857666-2.5001831-1.5126343-3.7478027-2.2086182C39.6898193,21.6882324,41.7027588,20.9724121,43.657959,20.3842163z   M43.4682617,50.4736938c-2.1763306-0.7782593-4.40979-1.7284546-6.6782837-2.8475342  c1.3201294-0.6240845,2.6278076-1.2698975,3.8916626-1.9547729c1.3394165-0.717041,2.6422119-1.4810791,3.9210205-2.262146  C44.3428345,45.8860474,43.9616089,48.2476807,43.4682617,50.4736938z M46.9500122,31.0828857  c1.8717651,1.4623413,3.6063232,2.9683838,5.1959229,4.4987793c-1.5814209,1.3362427-3.329895,2.663208-5.2367554,3.9657593  c0.0831909-1.5088501,0.140625-3.0296021,0.140625-4.5571899C47.0498047,33.6454468,47.0092163,32.3496704,46.9500122,31.0828857z   M40.3164062,26.4350586c1.6138306,1.0212402,3.131897,2.0535889,4.5424805,3.0737915  c0.1217651,1.7349854,0.190918,3.5686646,0.190918,5.4813843c0,1.9931641-0.0814209,3.9822388-0.2266846,5.9318237  c-1.6329956,1.0427246-3.3363037,2.0497437-5.0897217,2.9885864c-1.6798706,0.9102173-3.4279175,1.7647095-5.1959839,2.55896  c-1.7138672-0.9128418-3.3953247-1.8779297-4.9954224-2.8861084c-1.5725098-0.9883423-3.0952759-2.0289307-4.5511475-3.0910034  c-0.1218872-1.7470093-0.19104-3.5876465-0.19104-5.5022583c0-1.9832764,0.0814209-3.9621582,0.2265015-5.9022827  c1.663147-1.0564575,3.3757935-2.0708008,5.1084595-3.0073853c1.7025757-0.918335,3.4412231-1.7653198,5.1776733-2.5409546  C36.9694214,24.4196777,38.6495972,25.3851929,40.3164062,26.4350586z M22.9002075,38.9174805  c-1.8901978-1.4750366-3.6242676-2.9799805-5.1959229-4.4972534c1.6074219-1.3539429,3.3557129-2.6800537,5.2357788-3.9619141  c-0.0829468,1.5003662-0.1402588,3.0125732-0.1402588,4.5319214C22.7998047,36.3392334,22.8406372,37.6421509,22.9002075,38.9174805  z M28.4765625,45.2763672c1.2062378,0.7597656,2.4638062,1.487915,3.737793,2.1976929  c-2.0345459,0.836731-4.0481567,1.5497437-6.0224609,2.1422119c-0.4187622-2.0541992-0.7503052-4.2304077-0.9822388-6.5164795  C26.2749634,43.8422241,27.3599854,44.5742188,28.4765625,45.2763672z M40.5693359,59.1665039  c-0.0126953,0.0234375-0.0234375,0.0473633-0.0332031,0.0717773c-1.4609375,3.5361328-4.1601562,4.8764648-4.1728516,4.8828125  c-0.4970703,0.2280273-0.9726562,0.3388672-1.453125,0.3388672c-3.1755981,0-6.3860474-5.0298462-8.2886353-12.8847656  c2.5641479-0.7623901,5.1937866-1.7266235,7.8421021-2.883728c2.9000854,1.508728,5.7623901,2.7588501,8.5356445,3.7384033  C42.3178711,55.0483398,41.5064087,57.3244019,40.5693359,59.1665039z M59.8730469,50.6777344  c-1.6452637,2.6141357-7.1645508,2.7678833-14.5007324,0.4470215c0.6377563-2.8234253,1.0991821-5.8596802,1.368103-9.0576782  c2.5228882-1.6515503,4.8092041-3.3526001,6.8275146-5.0685425c0.5269165,0.5467529,1.0206299,1.0845337,1.4824829,1.6141968  c-0.7003174,0.8294678-1.1392822,1.8875122-1.1392822,3.0567017c0,2.6191406,2.1308594,4.75,4.75,4.75  c0.4391479,0,0.8563232-0.0789185,1.2603149-0.1904907C60.4169312,47.6743164,60.6836548,49.3895264,59.8730469,50.6777344z   M61.4208984,41.6694336c0,1.5166016-1.2382812,2.75-2.7597656,2.75c-1.5166016,0-2.75-1.2333984-2.75-2.75  c0-1.5219727,1.2333984-2.7602539,2.75-2.7602539C60.1826172,38.9091797,61.4208984,40.1474609,61.4208984,41.6694336z   M60.859375,21.0239258c1.491394,2.7688599-1.3303223,7.9142456-7.1987305,13.2401123  c-2.06073-1.9957275-4.3623657-3.9492188-6.8743896-5.8215942c-0.2397461-3.0378418-0.6445312-5.9212646-1.1994629-8.6056519  c1.7471924-0.4595337,3.3983765-0.7954102,4.9331055-1.0024414c0.5584106,1.9554443,2.3413696,3.3995361,4.4732666,3.3995361  c1.8792114,0,3.4929199-1.1216431,4.2341309-2.7252808C59.9761353,19.9007568,60.5275269,20.4054565,60.859375,21.0239258z   M54.9931641,14.8886719c1.4736328,0,2.6728516,1.1987305,2.6728516,2.6723633s-1.1992188,2.6728516-2.6728516,2.6728516  s-2.671875-1.1992188-2.671875-2.6728516S53.5195312,14.8886719,54.9931641,14.8886719z M34.9101562,5.5400391  c3.1934814,0,6.4147339,5.0300293,8.3179932,12.8852539c-2.5345459,0.755127-5.1640625,1.7221069-7.8418579,2.8925781  c-2.9213867-1.5200806-5.7892456-2.7740479-8.5515137-3.749939C28.7753296,10.1286011,31.8338013,5.5400391,34.9101562,5.5400391z   M8.5791016,26.8144531c0-1.4736328,1.1982422-2.6728516,2.671875-2.6728516s2.6728516,1.1992188,2.6728516,2.6728516  s-1.1992188,2.6728516-2.6728516,2.6728516S8.5791016,28.2880859,8.5791016,26.8144531z M11.2509766,22.1416016  c-0.5900269,0-1.1495361,0.121521-1.6697388,0.3220215c-0.2407837-1.2714233-0.1079712-2.3302002,0.4060669-3.1520996  c1.6386719-2.6088867,7.1511841-2.7556152,14.4815063-0.4362183c-0.6300659,2.8042603-1.0888672,5.8430786-1.3596802,9.0663452  c-2.4830933,1.6195068-4.7706299,3.3189087-6.8305054,5.0646973c-0.7905273-0.8205566-1.536499-1.6483154-2.2250366-2.4766235  c1.1286011-0.8538208,1.8702393-2.1942139,1.8702393-3.715271C15.9238281,24.237793,13.8271484,22.1416016,11.2509766,22.1416016z   M16.1881714,35.7366333c2.0332642,1.9746094,4.3356934,3.9282227,6.8751831,5.8207397  c0.2404785,3.0432129,0.6453857,5.9275513,1.1997681,8.6078491c-7.8146973,2.0505981-13.7700195,1.6016846-15.2846069-1.2111206  C7.4692993,46.1647339,10.2299194,41.1417236,16.1881714,35.7366333z"/><path d="M34.9267578,40.0776367c2.9199219,0,5.2949219-2.3754883,5.2949219-5.2954102  c0-2.9194336-2.375-5.2949219-5.2949219-5.2949219s-5.2949219,2.3754883-5.2949219,5.2949219  C29.6318359,37.7021484,32.0068359,40.0776367,34.9267578,40.0776367z M34.9267578,31.4873047  c1.8164062,0,3.2949219,1.4780273,3.2949219,3.2949219s-1.4785156,3.2954102-3.2949219,3.2954102  s-3.2949219-1.4785156-3.2949219-3.2954102S33.1103516,31.4873047,34.9267578,31.4873047z"/></svg>