<svg xmlns="http://www.w3.org/2000/svg" version="1.1" viewBox="-5.0 -10.0 110.0 135.0" class="socialStudiesIcon">
 <path d="m72.266 29.273c-2.7031 2.3164-4.7422 5.3086-5.9102 8.6719-0.42969 0.96094-0.81641 1.8164-1.1992 2.5234v-0.003906c-0.78516 1.3867-0.64844 3.1094 0.34375 4.3516 1.1562 1.7969 1.7148 3.9141 1.5977 6.0469l-0.45312 5.418h0.003907c3.3398-3.543 5.6328-7.9414 6.625-12.707 0.98828-4.7695 0.64062-9.7188-1.0078-14.301zm-8.5312 64.855c0.75781 0 1.375 0.61328 1.375 1.375 0 0.75781-0.61719 1.3711-1.375 1.3711h-38.902c-0.75781 0-1.375-0.61328-1.3789-1.3711v-2.7617c0.007813-2.2812 1.8594-4.1289 4.1406-4.1328h0.33203v-1.3867 0.003906c0.003907-2.2852 1.8516-4.1328 4.1367-4.1367h12.203v-4.875c-13.078-1.0547-24.816-8.4336-31.43-19.766-0.74219-1.2617-0.53906-2.8633 0.49609-3.8945l1.3516-1.3516v0.007813c0.70703-0.71094 1.707-1.0469 2.6992-0.91406 0.99219 0.13281 1.8672 0.72656 2.3594 1.5977 0.74219 1.3008 1.5703 2.5508 2.4844 3.7383l1.9844-1.9844h-0.003907c-4.1758-5.5664-6.2148-12.449-5.7422-19.395 0.46875-6.9414 3.418-13.488 8.3086-18.441 0.53125-0.53516 1.3945-0.53906 1.9297-0.011719 0.53906 0.53125 0.54688 1.3945 0.019531 1.9336-0.71094 0.72656-1.3828 1.4922-2.0117 2.293 0.47656 2.1328 1.582 5.207 3.9609 5.3086 4.0117 0.18359 7.2109 1.8672 7.3984 5.5508h-0.003906c-0.32812 4.375-3.0195 8.2188-7.0156 10.023-1.2695 0.54297-2.3398 1.4609-3.0742 2.6289-1.3555 2.3242 0.36719 3.5234 2.8672 4.0039l-0.003906-0.003907c0.050781 0.007813 0.09375 0.019532 0.14062 0.03125 2.2812 0.88281 3.8867 2.957 4.168 5.3906 0.5 2.2773 0.76953 4.6055 0.80078 6.9375 4.832 2.3516 10.266 3.168 15.578 2.3477-1.7891-1.8086-3.9805-3.1719-6.3945-3.9727-6.7773-2.1484-9.7188-7.6562-4.8477-13.418 1.9414-2.1758 4.0117-4.2383 6.1953-6.1758 5.1797-4.6602 8.5234-1.7891 11.852-7.5312 2.9648-5.1094 1.7031-3.7852 1.9688-8.3164 0.058594-0.95703 0.28516-3.3477-0.88672-3.3281-1.7227 0.027344-1.1367 4.2656-3.5195 6.2852h-0.003906c-1.1562 1.0312-2.8789 1.1016-4.1133 0.16797-0.75781-0.57422-1.3398-1.3438-1.6875-2.2266-2.4023-5.668-2.6172-5.3398-8.0938-5.9805-2.5781-0.29688-4.4648-2.6719-6.2148-5.1328-1.0547 0.52344-2.0742 1.1172-3.0508 1.7812-0.30078 0.20312-0.66797 0.27734-1.0234 0.21094-0.35547-0.070313-0.67188-0.27734-0.875-0.57812s-0.27734-0.66797-0.21094-1.0234c0.070312-0.35547 0.27734-0.67187 0.57812-0.875 5.0078-3.3906 10.945-5.1328 16.988-4.9883 6.0469 0.14453 11.895 2.1719 16.73 5.8008l1.9844-1.9844c-1.1875-0.91406-2.4336-1.7461-3.7383-2.4805-0.87109-0.49609-1.4648-1.3711-1.6016-2.3633-0.13281-0.99219 0.20312-1.9961 0.91016-2.7031l1.3438-1.3516h0.003906c1.0312-1.0312 2.6367-1.2344 3.8984-0.49219 9.4336 5.5078 16.211 14.629 18.773 25.25 2.5586 10.621 0.67578 21.824-5.2109 31.027-5.8906 9.2031-15.273 15.605-25.992 17.734v5.5078h12.203c2.2812 0.003906 4.1289 1.8555 4.1328 4.1367v1.3867h0.33594l0.003906-0.003906c2.2773 0.007813 4.125 1.8555 4.1289 4.1328v2.7617c0 0.36328-0.14453 0.71484-0.39844 0.96875-0.25781 0.25781-0.60547 0.40234-0.97266 0.40234h-5.4961c-0.75781 0-1.3711-0.61328-1.3711-1.3711 0-0.76172 0.61328-1.375 1.3711-1.375h4.1211v-1.3867c-0.003906-0.76172-0.62109-1.3789-1.3828-1.3867h-44.371c-0.76562 0.003906-1.3867 0.62109-1.3945 1.3867v1.3867zm3.7578-8.293h-35.43c-0.76953 0.003906-1.3867 0.62109-1.3906 1.3906v1.3867h38.211v-1.3867h-0.003906c-0.003906-0.76562-0.62109-1.3867-1.3867-1.3906zm-20.484-7.4961v4.75h5.5352v-5.0625c-1.832 0.23047-3.6836 0.33203-5.5312 0.3125zm26.816-62.551h0.003906c0.050781 0.050782 0.097656 0.10547 0.13672 0.16016 6.2656 7.4492 9.1016 17.191 7.8164 26.836-1.2852 9.6484-6.5742 18.305-14.566 23.855-7.9922 5.5508-17.953 7.4766-27.441 5.3086-9.4883-2.168-17.621-8.2266-22.414-16.699-0.066406-0.13281-0.19531-0.22266-0.34375-0.24219-0.14453-0.019531-0.29297 0.03125-0.39844 0.13672h0.003906l-1.3516 1.3477 0.003907 0.003906c-0.16016 0.14453-0.19531 0.38281-0.078126 0.56641 5.8438 10.008 16 16.738 27.492 18.227 11.496 1.4844 23.027-2.4453 31.223-10.641 8.1953-8.1953 12.129-19.727 10.645-31.223-1.4844-11.492-8.2148-21.648-18.223-27.492-0.18359-0.11719-0.42188-0.085938-0.56641 0.078125l-1.3906 1.3867v-0.003907c-0.085938 0.10938-0.12109 0.25-0.09375 0.38281 0.027344 0.13672 0.11328 0.25391 0.23438 0.32031 3.5312 1.9961 6.6836 4.6016 9.3125 7.6914zm-1.0781 3.0156-1.9844 1.9844h0.003906c5.6367 7.5312 7.2852 17.324 4.4219 26.285-2.8633 8.9609-9.8867 15.984-18.848 18.848-8.9648 2.8633-18.758 1.2188-26.289-4.4219l-1.9844 1.9766h0.003906c8.2461 6.3359 19.066 8.25 28.984 5.125 9.918-3.125 17.688-10.891 20.812-20.812 3.1289-9.918 1.2148-20.738-5.1211-28.984zm-3.7422-0.14453 1.9688-1.9688c-0.62109-0.67969-1.2773-1.3359-1.9609-1.9609l-1.9609 1.9688zm-43.043 43.047 1.9609-1.9688-1.957-1.9609-1.9648 1.9688c0.62109 0.67969 1.2773 1.3359 1.9609 1.9609zm37.621-2.6484c0.33203-2.7578 0.58203-5.3477 0.77734-8.3672h0.003906c0.058594-1.6172-0.38281-3.2109-1.2656-4.5664-1.5625-2.0195-1.6992-4.8008-0.34375-6.9648 0.33203-0.60156 0.69531-1.418 1.1016-2.332 1.3711-4.0273 3.9258-7.5508 7.3281-10.105-2.8594-5.8828-7.8008-10.488-13.867-12.93-6.0664-2.4414-12.82-2.543-18.957-0.28906 1.2969 1.7812 2.6328 3.3672 3.9453 3.5195 6.9766 0.80859 7.2734 0.48437 10.309 7.6289 0.21094 0.50781 0.69141 1.2305 1.1484 1.2188 0.46875-0.015625 0.92969-0.88672 1.1406-1.5117 0.80469-2.3555 0.96094-5.5391 4.4688-5.6016 4.0234-0.054687 3.7891 3.957 3.6445 6.5664-0.22266 4.0938 1.1797 3.1875-2.3086 9.1992-4.0117 6.9141-7.832 4.0938-12.387 8.1953-2.0977 1.8477-4.0781 3.8203-5.9414 5.9062-3.7383 4.4141-1 7.5781 3.582 9.0312v0.003906c3.3828 1.1641 6.4023 3.1953 8.7539 5.8906 3.2148-0.91797 6.2266-2.4414 8.8711-4.4922zm-38.855-34.098c-3.3984 5.8438-4.4219 12.773-2.8594 19.352 1.5664 6.5781 5.6016 12.301 11.27 15.988-0.13672-2.1289-0.63672-7.5625-2.8398-8.0781-1.5938-0.22266-3.082-0.93359-4.2578-2.0352-1.5352-1.6562-1.7148-4.1562-0.43359-6.0195 1.0234-1.6641 2.5273-2.9727 4.3164-3.7578 2.1172-1.0312 3.8203-2.7539 4.8281-4.8789 0.84766-1.2969 0.77734-2.9883-0.17188-4.2109-1.1562-0.87109-2.582-1.3125-4.0273-1.2461-2.8164-0.32812-5.1367-2.3633-5.8242-5.1133z"/>
</svg>