<svg xmlns="http://www.w3.org/2000/svg" xmlns:xlink="http://www.w3.org/1999/xlink" version="1.1" x="0px" y="0px" viewBox="0 0 68 85" style="enable-background:new 0 0 68 68;" xml:space="preserve" class="spanishIcon"><g><path d="M5.6,48.9c-0.7-0.1-1.3,0.2-1.7,0.7c-0.4,0.5-0.7,1.1-0.8,1.7c-0.6,2.3-0.4,4.7-0.1,7C3.1,59.6,3.2,61,4.1,62   c0.6,0.8,1.8,1.3,2.8,1c0,0,0.1,0,0.1,0H7c-0.1,1-0.3,1.8-0.4,2.6c-0.1,0.3,0.1,0.6,0.3,0.8c0.1,0.1,0.3,0.1,0.4,0.1   c0.1,0,0.3,0,0.4-0.1c1.6-0.9,3.1-2.1,4.4-3.4h9.5c1.8,0,3.2-1.4,3.2-3.2v-2.5c9.5,4.2,21.8,2.6,29.8-6.3   c9.4-9.4,9.9-25.5-0.2-35.5l8.6,0c1.3,0,2.3-1,2.3-2.3V3.8c0-1.3-1.1-2.3-2.3-2.3H46.4c-0.5,0-0.9,0.1-1.2,0.4   c-1.1,0.2-1.8,1-1.8,2.9c0,1.5,0,3-0.1,4.5c-6-1.7-12.9-1-19.1,2.6C10,18.9,6,36.1,14,48.6C7.1,48.7,6.7,48.4,5.6,48.9z M23.3,59.8   c0,0.9-0.8,1.7-1.7,1.7c-10.4,0-10-0.1-10.4,0.2c0,0,0,0,0,0c-0.9,0.9-1.9,1.7-2.9,2.5c0.1-0.4,0.2-1.5,0.2-1.9c0,0,0,0,0,0   c0,0,0-0.2-0.1-0.3c-0.1-0.1-0.2-0.3-0.4-0.4c0,0-0.2-0.1-0.2-0.1c0,0-1,0-1,0c-0.9,0-1.7-0.8-1.7-1.7v-8.1c0-0.9,0.8-1.7,1.7-1.7   h14.7c0.9,0,1.7,0.8,1.7,1.7V59.8z M45.3,41.3c-6.5-0.8-13.2-0.7-19.7,0.3c-1.2-6-1-12,0.7-17.8c5.7,0.8,11.5,1,17.6,0.2   C45.2,29.6,45.7,35.5,45.3,41.3z M18.7,48.6c-0.9-1.1-1.7-2.2-2.4-3.4c2.7-0.8,5.4-1.4,8.2-1.9c1.1,4.5,2.9,8.8,5.4,12.7   c-1.8-0.5-3.5-1.3-5.1-2.2v-2c0-1.8-1.4-3.2-3.2-3.2H18.7z M44,55.8c1.4-4.1,2.3-8.4,2.7-12.8c3.5,0.5,7,1.3,10.4,2.3   C54.3,50.1,49.8,53.9,44,55.8z M42.3,56.2c-3.4,0.8-6.9,0.9-10.3,0.2c-0.1-0.7-4-5-6-13.4c6.4-0.9,12.9-1,19.3-0.2   C44.8,47.4,43.8,51.9,42.3,56.2z M24.2,41.8c-2.9,0.5-5.8,1.2-8.6,2c-3.4-7-3.3-15.3,0.9-22.3c2.7,0.8,5.5,1.5,8.3,2   C23.2,29.3,22.9,35.4,24.2,41.8z M17.4,20.2c3.2-4.6,8.1-8.1,13.6-9.6c-2.5,3.5-4.4,7.3-5.7,11.4C22.6,21.6,20,21,17.4,20.2z    M57.8,44c-1.8-0.6-6.5-1.8-11-2.5c0.4-5.9-0.1-12-1.4-17.8c6.6-1,11.3-2.7,11.4-2.7C61.1,28,61.4,36.7,57.8,44z M63.8,3.8v9.4   c0,0.5-0.4,0.8-0.8,0.8c-11.4,0-10.8-0.2-11.2,0c-0.5,0.1-0.2,0.1-2.4,2c0-0.3,0.1-1.2,0-1.5c0-0.1,0-0.1-0.1-0.3   c-0.3-0.4-0.5-0.3-2.9-0.3c-0.5,0-0.8-0.4-0.8-0.8V3.8c0-0.5,0.4-0.8,0.8-0.8H63C63.5,3,63.8,3.4,63.8,3.8z M43.5,13.9   c0.3,0.7,0.9,1.1,1.6,1.3c0.9,0.6,1.6,0.3,2.8,0.4c-0.1,0.8-0.2,1.6-0.3,2.3c-0.1,0.3,0.1,0.6,0.4,0.8c0.3,0.2,0.6,0.1,0.9-0.1   c0.9-0.8,2.4-1.9,3.4-3c1.4,1.2,2.6,2.6,3.7,4.1c-3.6,1.2-7.2,2-10.9,2.6c-1.1-4.2-2.7-8.3-4.7-12.2c1,0.1,2,0.4,3,0.7   C43.3,12.2,43.2,13.2,43.5,13.9z M38.5,9.9c0.2,0.6,3,5,5,12.5c-5.6,0.7-11.2,0.6-16.8-0.2c1.4-4.4,3.6-8.5,6.5-12.1   C35.3,9.8,36.9,9.8,38.5,9.9z"/><path d="M14.6,52.5c-0.2-0.5-1-0.6-1.3-0.1l-4.1,5.7c-0.2,0.3-0.2,0.8,0.2,1c0.3,0.2,0.8,0.2,1-0.2l1.1-1.5c0.3,0.1-0.2,0,3.6,0   c0.2,0.5,0.5,1.1,0.7,1.6c0.2,0.4,0.6,0.5,1,0.4c0.4-0.2,0.5-0.6,0.4-1C16.4,56.7,15.4,54.3,14.6,52.5z M13.8,54.4   c0.2,0.5,0.5,1.1,0.7,1.6l-1.9,0L13.8,54.4z"/><path d="M50.5,7.3h2.3c-0.7,1.8-1,1.9-0.8,2.4c0.2,0.4,0.5,0.4,1.6,0.7c-0.7,0.3-1.4,0.6-2.1,0.6c-0.4,0-0.7,0.4-0.7,0.8   c0,0.4,0.3,0.7,0.7,0.7c0.1,0,2,0,3.8-1.4c0.7,0.3,1.4,0.7,2,1.2c0.3,0.2,0.8,0.2,1-0.2c0.2-0.3,0.2-0.8-0.2-1   c-0.6-0.4-1.1-0.7-1.7-1.1c0.6-0.8,1-1.7,1.2-2.7h0.8c0.4,0,0.8-0.3,0.8-0.8s-0.3-0.8-0.8-0.8h-3.5c0.1-0.5,0.3-0.9,0.4-1.4   c0.1-0.4-0.1-0.8-0.5-0.9c-0.4-0.1-0.8,0.1-0.9,0.5c-0.2,0.6-0.3,1.2-0.5,1.8h-2.8c-0.4,0-0.8,0.3-0.8,0.8S50.1,7.3,50.5,7.3z    M56.1,7.3c-0.2,0.8-0.6,1.5-1.1,2c-0.4-0.2-0.8-0.3-1.3-0.5c0.2-0.5,0.4-1.1,0.6-1.6H56.1z"/><path d="M13.1,13.2c-0.3,0.3-0.3,0.8,0,1.1c1.7,1.5,1.7,1.8,2.2,1.8c0.7,0,1-0.8,0.5-1.3l-1.7-1.6C13.8,12.8,13.3,12.9,13.1,13.2z"/><path d="M18.8,13.6c0.4-0.2,0.5-0.6,0.3-1l-2.1-4c-0.2-0.4-0.6-0.5-1-0.3c-0.4,0.2-0.5,0.6-0.3,1l2.1,4   C18,13.7,18.4,13.8,18.8,13.6z"/><path d="M21,11.9c0.5,0,0.8-0.4,0.7-0.9l-0.4-2.6c-0.1-0.4-0.4-0.7-0.8-0.6c-0.4,0.1-0.7,0.4-0.6,0.8l0.4,2.6   C20.4,11.7,20.7,11.9,21,11.9z"/></g></svg>